<svg width="16" height="16" viewBox="0 0 16 16" fill="none" xmlns="http://www.w3.org/2000/svg">
<path d="M7.33366 3.33336H4.00033C3.6467 3.33336 3.30756 3.47384 3.05752 3.72388C2.80747 3.97393 2.66699 4.31307 2.66699 4.66669V12C2.66699 12.3536 2.80747 12.6928 3.05752 12.9428C3.30756 13.1929 3.6467 13.3334 4.00033 13.3334H11.3337C11.6873 13.3334 12.0264 13.1929 12.2765 12.9428C12.5265 12.6928 12.667 12.3536 12.667 12V8.66669M11.7243 2.39069C11.8473 2.26335 11.9944 2.16177 12.1571 2.09189C12.3198 2.02201 12.4948 1.98523 12.6718 1.98369C12.8488 1.98215 13.0244 2.01589 13.1883 2.08293C13.3521 2.14997 13.501 2.24898 13.6262 2.37417C13.7514 2.49936 13.8504 2.64823 13.9174 2.81209C13.9845 2.97595 14.0182 3.15152 14.0167 3.32856C14.0151 3.5056 13.9783 3.68056 13.9085 3.84323C13.8386 4.0059 13.737 4.15303 13.6097 4.27603L7.88566 10H6.00033V8.11469L11.7243 2.39069Z" stroke="black" stroke-width="2" stroke-linecap="round" stroke-linejoin="round"/>
</svg>
