<svg width="16" height="16" viewBox="0 0 16 16" fill="none" xmlns="http://www.w3.org/2000/svg">
<path d="M7.99967 6.66667V10.6667M7.99967 10.6667L5.99967 8.66667M7.99967 10.6667L9.99967 8.66667M11.333 14H4.66634C4.31272 14 3.97358 13.8595 3.72353 13.6095C3.47348 13.3594 3.33301 13.0203 3.33301 12.6667V3.33333C3.33301 2.97971 3.47348 2.64057 3.72353 2.39052C3.97358 2.14048 4.31272 2 4.66634 2H8.39034C8.56714 2.00004 8.73668 2.0703 8.86167 2.19533L12.471 5.80467C12.596 5.92966 12.6663 6.0992 12.6663 6.276V12.6667C12.6663 13.0203 12.5259 13.3594 12.2758 13.6095C12.0258 13.8595 11.6866 14 11.333 14Z" stroke="black" stroke-width="2" stroke-linecap="round" stroke-linejoin="round"/>
</svg>
